<svg width="597" height="160" viewBox="0 0 597 160" fill="none" xmlns="http://www.w3.org/2000/svg">
<g clip-path="url(#clip0_1335_6854)">
<path fill-rule="evenodd" clip-rule="evenodd" d="M25.2003 61.1015C25.2003 71.4966 33.7046 80.0026 44.1015 80.0026C54.4984 80.0026 63.0009 71.4966 63.0009 61.1015C63.0009 50.7063 54.4966 42.2003 44.0997 42.2003C33.7028 42.2003 25.2003 50.7046 25.2003 61.1015ZM63.0009 117.801C42.2105 117.801 25.2003 100.791 25.2003 80.0026H0C0 114.653 28.3508 143.002 63.0009 143.002C97.6509 143.002 126.002 114.653 126.002 80.0026V17H63.0009V42.2003H100.801V80.0026C100.801 100.791 83.7912 117.801 63.0009 117.801Z" fill="url(#paint0_linear_1335_6854)"/>
</g>
<path d="M179.28 45.6V68.32H215.92V89.44H179.28V114.08H220.72V136H151.92V23.68H220.72V45.6H179.28ZM291.603 137.12C281.043 137.12 271.336 134.667 262.483 129.76C253.736 124.853 246.749 118.027 241.523 109.28C236.402 100.427 233.842 90.5067 233.842 79.52C233.842 68.5333 236.402 58.6667 241.523 49.92C246.749 41.1733 253.736 34.3467 262.483 29.44C271.336 24.5333 281.043 22.08 291.603 22.08C302.163 22.08 311.816 24.5333 320.563 29.44C329.416 34.3467 336.349 41.1733 341.363 49.92C346.483 58.6667 349.043 68.5333 349.043 79.52C349.043 90.5067 346.483 100.427 341.363 109.28C336.243 118.027 329.309 124.853 320.563 129.76C311.816 134.667 302.163 137.12 291.603 137.12ZM291.603 112.16C300.563 112.16 307.709 109.173 313.042 103.2C318.483 97.2267 321.203 89.3333 321.203 79.52C321.203 69.6 318.483 61.7067 313.042 55.84C307.709 49.8667 300.563 46.88 291.603 46.88C282.536 46.88 275.283 49.8133 269.843 55.68C264.509 61.5467 261.843 69.4933 261.843 79.52C261.843 89.44 264.509 97.3867 269.843 103.36C275.283 109.227 282.536 112.16 291.603 112.16ZM464.744 136H437.384L391.624 66.72V136H364.264V23.68H391.624L437.384 93.28V23.68H464.744V136ZM559.136 59.2C557.11 55.4667 554.176 52.64 550.336 50.72C546.603 48.6933 542.176 47.68 537.056 47.68C528.203 47.68 521.11 50.6133 515.776 56.48C510.443 62.24 507.776 69.9733 507.776 79.68C507.776 90.0267 510.55 98.1333 516.096 104C521.75 109.76 529.483 112.64 539.296 112.64C546.016 112.64 551.67 110.933 556.256 107.52C560.95 104.107 564.363 99.2 566.496 92.8H531.776V72.64H591.296V98.08C589.27 104.907 585.803 111.253 580.896 117.12C576.096 122.987 569.963 127.733 562.496 131.36C555.03 134.987 546.603 136.8 537.216 136.8C526.123 136.8 516.203 134.4 507.456 129.6C498.816 124.693 492.043 117.92 487.136 109.28C482.336 100.64 479.936 90.7733 479.936 79.68C479.936 68.5867 482.336 58.72 487.136 50.08C492.043 41.3333 498.816 34.56 507.456 29.76C516.096 24.8533 525.963 22.4 537.056 22.4C550.496 22.4 561.803 25.6533 570.976 32.16C580.256 38.6667 586.39 47.68 589.376 59.2H559.136Z" fill="white"/>
<defs>
<linearGradient id="paint0_linear_1335_6854" x1="17" y1="36.5" x2="108" y2="137.5" gradientUnits="userSpaceOnUse">
<stop stop-color="#EB00FF"/>
<stop offset="0.8" stop-color="#4A00E7"/>
</linearGradient>
<clipPath id="clip0_1335_6854">
<rect width="126" height="126" fill="white" transform="translate(0 17)"/>
</clipPath>
</defs>
</svg>
